# xmcd CD database file
#
# Track frame offsets:
#	182
#	20962
#	54810
#	69392
#	106885
#	121107
#	150605
#	168680
#	199277
#
# Disc length: 2868 seconds
#
# Revision: 0
# Processed by: cddbd v1.4PL0 Copyright (c) Steve Scherf et al.
# Submitted via: CDex 1.50beta8
#
DISCID=750b3209
DTITLE=Garibaldi - Grandes exitos
DYEAR=1992
DGENRE=Salsa
TTITLE0=El buey cansado
TTITLE1=Tropi Mix
TTITLE2=Los hijos de Buda
TTITLE3=Revolucion
TTITLE4=Que te la pongo
TTITLE5=Rumba Mix
TTITLE6=Banana
TTITLE7=Sangrita
TTITLE8=Cotorrea
EXTD=YEAR: 1992
EXTT0=
EXTT1=
EXTT2=
EXTT3=
EXTT4=
EXTT5=
EXTT6=
EXTT7=
EXTT8=
PLAYORDER=
